<?xml version="1.0" encoding="utf-8"?>
<!-- Generator: Adobe Illustrator 21.1.0, SVG Export Plug-In . SVG Version: 6.00 Build 0)  -->
<svg version="1.1" id="Calque_1" xmlns="http://www.w3.org/2000/svg" xmlns:xlink="http://www.w3.org/1999/xlink" x="0px" y="0px"
	 viewBox="0 0 245.4 87.1" style="enable-background:new 0 0 245.4 87.1;" xml:space="preserve">
<style type="text/css">
	.st0{fill:#E41B48;}
	.st1{font-family:'MyriadPro-Regular';}
	.st2{font-size:31.6247px;}
	.st3{fill:none;stroke:#00386A;stroke-miterlimit:10;}
	.st4{fill:#00386A;}
	.st5{fill:#00A885;}
	.st6{fill:#4C4849;}
	.st7{font-size:19.7654px;}
</style>
<text transform="matrix(1 0 0 1 86.9922 39.3428)" class="st0 st1 st2">CleverQuizz</text>
<rect x="90" y="58.1" class="st3" width="13.8" height="13.8"/>
<g>
	<path class="st4" d="M24.3,42.5c-0.6,2.6-2.8,4.5-5.5,4.5c-0.8,0-1.4,0.6-1.4,1.4c0,0.8,0.6,1.4,1.4,1.4c4.2,0,7.7-3.2,8.3-7.1
		c2.6-0.2,4.9-1.4,6.7-3.4c0.6-0.6,0.6-1.4,0-1.8c-0.6-0.6-1.4-0.6-1.8,0c-1.6,1.6-3.8,2.6-6.1,2.6c-4.7,0-8.5-3.8-8.5-8.5
		c0-0.8-0.6-1.4-1.4-1.4c-0.8,0-1.4,0.6-1.4,1.4C14.6,37,19,41.7,24.3,42.5z"/>
	<path class="st4" d="M30.1,54c0-0.8-0.6-1.4-1.4-1.4c-6.1,0-11.3,4.9-11.3,11.3v0.2c-0.4,0-1-0.2-1.6-0.2c-0.8,0-1.4,0.6-1.4,1.4
		c0,0.8,0.6,1.4,1.4,1.4c4.7,0,8.5,3.8,8.5,8.5c0,0.8,0.6,1.4,1.4,1.4s1.4-0.6,1.4-1.4c0-4.7-3-8.7-6.9-10.3c0-0.4,0-0.6,0-1
		c0-4.7,3.8-8.5,8.5-8.5C29.5,55.2,30.1,54.6,30.1,54z"/>
	<path class="st4" d="M75.1,42.5c0-3-1.2-5.9-3.4-7.9c0.4-1,0.6-2.2,0.6-3.4c0-5.5-4-10.1-9.1-11.1c0.4-1,0.6-2,0.6-3.2
		c0-3.4-2.2-6.3-5.1-7.7C53.8,5.3,48.3,3,44.1,3c-2.4,0-4.3,1.2-5.7,3c-1.2-1.8-3.4-3-5.7-3C28.5,3,23,5.3,18,9.3
		c-2.6,1.6-4.7,4.5-4.7,7.9c0,1,0.2,2.2,0.6,3.2c-5.1,1-9.1,5.5-9.1,11.1c0,1.2,0.2,2.2,0.6,3.4C3.2,37,2,39.7,2,42.7
		c0,2.4,0.8,4.5,2,6.3c-1.4,1.8-2,4-2,6.3c0,4,2.2,7.7,5.7,9.7c0,0.6,0,1,0,1.6c0,5.5,3.6,10.3,8.7,12.1c2.2,4,6.3,6.3,10.9,6.3
		c4.9,0,9.3-2.8,11.3-6.9c2,4.2,6.3,6.9,11.3,6.9c4.5,0,8.7-2.4,10.9-6.3c5.1-1.6,8.7-6.5,8.7-12.1c0-0.6,0-1,0-1.6
		c3.6-2,5.7-5.7,5.7-9.7c0-2.4-0.6-4.5-2-6.3C74.3,47.1,75.1,44.9,75.1,42.5z M27.3,82.2c-3.8,0-7.1-2-8.9-5.3
		c-0.2-0.4-0.4-0.6-0.8-0.6c-4.3-1.4-7.3-5.3-7.3-9.7c0-0.6,0-1.4,0.2-2c0.2-0.6-0.2-1.2-0.8-1.4c-3.2-1.4-5.1-4.3-5.1-7.9
		c0-1.6,0.4-3,1.2-4.3c2,1.8,4.5,2.8,7.3,2.8c0.8,0,1.4-0.6,1.4-1.4c0-0.8-0.6-1.2-1.2-1.2c-4.7,0-8.5-3.8-8.5-8.5
		c0-2.6,1.2-4.9,3.2-6.5c0.4-0.4,0.6-1,0.4-1.6c-0.4-1-0.6-2.2-0.6-3.2c0-4.7,3.8-8.5,8.5-8.5s8.5,3.8,8.5,8.5
		c0,0.8,0.6,1.4,1.4,1.4c0.8,0,1.4-0.6,1.4-1.4c0-5.9-4.5-10.9-10.5-11.1c-0.8-1.2-1.2-2.2-1.2-3.2c0-2.4,1.4-4.3,3.6-5.3h0.2
		c0.6-0.2,1.4-0.4,2-0.4c2.2,0,4.2,1.2,5.1,3.2c0.4,0.6,1.2,1,1.8,0.6c0.6-0.4,1-1.2,0.6-1.8c-1.2-2.4-3.2-4-5.5-4.5
		c3.4-2,6.7-3.2,9.3-3.2c2.4,0,4.3,2,4.3,4.3v17.2c-1.2-1-2.8-1.6-4.3-1.6c-0.8,0-1.4,0.6-1.4,1.4s0.6,1.4,1.4,1.4
		c2.4,0,4.3,2,4.3,4.3v31.8c-1.6-2.2-4-3.8-6.7-4.5c-0.8-0.2-1.4,0.2-1.6,1c-0.2,0.8,0.2,1.4,1,1.6c4.3,1.2,7.3,5.1,7.3,9.7
		C37.2,77.7,32.8,82.2,27.3,82.2z M67.4,63.1c-0.6,0.2-0.8,0.8-0.8,1.4c0.2,0.6,0.2,1.4,0.2,2c0,4.5-3,8.5-7.3,9.7
		c-0.4,0-0.6,0.4-0.8,0.6c-1.8,3.4-5.1,5.3-8.9,5.3c-5.5,0-9.9-4.5-9.9-9.9c0-0.4,0-0.8,0-1.2c0-0.2,0-0.2,0-0.4V27.1
		c0-2.4,2-4.3,4.3-4.3c0.8,0,1.4-0.6,1.4-1.4S45.1,20,44.3,20c-1.6,0-3.2,0.6-4.3,1.6V10.1c0-2.4,2-4.3,4.3-4.3
		c2.6,0,5.9,1.2,9.3,3.2c-2.4,0.8-4.5,2.4-5.7,4.7c-0.4,0.6,0,1.4,0.6,1.8c0.6,0.4,1.4,0,1.8-0.6c1-2,3-3.2,5.1-3.2
		c0.8,0,1.4,0.2,2,0.4h0.2c2,0.8,3.6,3,3.6,5.3c0,1-0.2,2-0.8,3c-5.9,0.4-10.5,5.1-10.5,11.1c0,0.8,0.6,1.4,1.4,1.4s1.4-0.6,1.4-1.4
		c0-4.7,3.8-8.5,8.5-8.5s8.5,3.8,8.5,8.5c0,1.2-0.2,2.2-0.6,3.2c-0.2,0.6,0,1.2,0.4,1.6c2,1.6,3.2,4,3.2,6.5c0,4.7-3.8,8.5-8.5,8.5
		c-0.8,0-1.4,0.6-1.4,1.4c0,0.8,0.6,1.4,1.4,1.4c2.8,0,5.3-1,7.3-2.8c0.8,1.4,1.2,2.8,1.2,4.3C72.6,58.7,70.6,61.7,67.4,63.1z"/>
	<path class="st4" d="M61.1,45.5c-2.8,0-4.9-2-5.5-4.5c5.5-0.8,9.7-5.3,9.7-11.1c0-0.8-0.6-1.4-1.4-1.4s-1.4,0.6-1.4,1.4
		c0,4.7-3.8,8.5-8.5,8.5c-2.4,0-4.5-1-6.1-2.6c-0.6-0.6-1.4-0.6-1.8,0c-0.6,0.6-0.6,1.4,0,1.8c1.8,1.8,4.2,3,6.7,3.4
		c0.6,4,4.2,7.1,8.3,7.1c0.8,0,1.4-0.6,1.4-1.4C62.5,45.9,61.9,45.5,61.1,45.5z"/>
	<path class="st4" d="M56.9,61.1c-0.6,0-1,0-1.6,0.2v-0.2c0-6.1-4.9-11.3-11.3-11.3c-0.8,0-1.4,0.6-1.4,1.4c0,0.8,0.6,1.4,1.4,1.4
		c4.7,0,8.5,3.8,8.5,8.5c0,0.4,0,0.6,0,1c-4.2,1.6-6.9,5.7-6.9,10.3c0,0.8,0.6,1.4,1.4,1.4c0.8,0,1.4-0.6,1.4-1.4
		c0-4.7,3.8-8.5,8.5-8.5c0.8,0,1.4-0.6,1.4-1.4C58.3,61.7,57.5,61.1,56.9,61.1z"/>
</g>
<g transform="translate(0.000000,1256.000000) scale(0.100000,-0.100000)">
	<path class="st5" d="M1068.2,12008.2c-9.9-1.4-22.5-8.9-41.5-24.7c-8.7-7.3-21-18.2-32-29.1c-6.9-6.5-16.6-16.4-22.1-22.1
		c-0.8-0.8-1.4-1.4-1.4-1.6c-0.2-0.2-0.8,0.2-4,1.6c-11.3,4.9-20.6,8.3-27.7,9.9c-3,0.6-4.5,0.8-7.7,0.8c-2.6,0-3.2,0-4.5-0.2
		c-4.7-0.8-8.5-2.8-11.1-5.9c-3.4-4-4.2-9.9-2-13.8c0.8-1.4,1.6-2.2,3.8-4.2c6.7-5.7,9.9-8.7,13.8-12.7c10.5-10.5,20.2-23.3,33-43.5
		c1.2-1.8,2.4-3.6,2.6-4c4.3-4.9,12.5-5.7,17.8-1.4c1.8,1.4,2.4,2.4,4.3,7.1c5.9,13,13,26.5,20.2,38.5
		c12.1,19.8,25.5,37.2,40.5,52.6c6.7,6.9,12.3,12.1,23.1,21.5c9.3,7.9,10.9,9.7,12.5,12.8c1,2,1.4,3.2,1.4,5.3c0,1.6,0,2-0.4,3
		c-1.4,4.7-5.5,8.1-11.7,9.5C1074.1,12008.4,1069.7,12008.4,1068.2,12008.2z"/>
</g>
<text transform="matrix(1 0 0 1 114.1699 70.9697)" class="st6 st1 st7">Learn Everyday</text>
</svg>
